<?xml version="1.0" encoding="UTF-8" standalone="no"?>
<!-- Created with Inkscape (http://www.inkscape.org/) -->

<svg
   xmlns:dc="http://purl.org/dc/elements/1.1/"
   xmlns:cc="http://creativecommons.org/ns#"
   xmlns:rdf="http://www.w3.org/1999/02/22-rdf-syntax-ns#"
   xmlns:svg="http://www.w3.org/2000/svg"
   xmlns="http://www.w3.org/2000/svg"
   xmlns:sodipodi="http://sodipodi.sourceforge.net/DTD/sodipodi-0.dtd"
   xmlns:inkscape="http://www.inkscape.org/namespaces/inkscape"
   version="1.1"
   id="svg3713"
   width="266.66666"
   height="266.66666"
   viewBox="0 0 266.66666 266.66666"
   sodipodi:docname="gnu social logo.svg"
   inkscape:version="0.92.4 (5da689c313, 2019-01-14)"
   inkscape:export-filename="/home/someone/Documents/social-landing/assets/imgs/gnu social logo.svg.png"
   inkscape:export-xdpi="810"
   inkscape:export-ydpi="810">
  <metadata
     id="metadata3719">
    <rdf:RDF>
      <cc:Work
         rdf:about="">
        <dc:format>image/svg+xml</dc:format>
        <dc:type
           rdf:resource="http://purl.org/dc/dcmitype/StillImage" />
        <dc:title />
      </cc:Work>
    </rdf:RDF>
  </metadata>
  <defs
     id="defs3717" />
  <sodipodi:namedview
     pagecolor="#ffffff"
     bordercolor="#666666"
     borderopacity="1"
     objecttolerance="10"
     gridtolerance="10"
     guidetolerance="10"
     inkscape:pageopacity="0"
     inkscape:pageshadow="2"
     inkscape:window-width="1920"
     inkscape:window-height="1015"
     id="namedview3715"
     showgrid="false"
     inkscape:zoom="0.64"
     inkscape:cx="357.24085"
     inkscape:cy="395.00326"
     inkscape:window-x="0"
     inkscape:window-y="0"
     inkscape:window-maximized="1"
     inkscape:current-layer="svg3713" />
  <path
     style="fill:#ffffff;stroke-width:1.33333325;opacity:0.2;fill-opacity:1"
     d="m 112.63916,257.44102 c 18.09609,-9.43232 28.19685,-18.9992 34.61333,-32.78385 1.86347,-4.00332 3.39399,-9.50424 3.40115,-12.22427 l 0.013,-4.94549 -56.333329,-0.38784 -56.333331,-0.38784 -6.38955,-3.75582 c -8.041523,-4.72686 -13.699104,-12.45405 -15.626351,-21.34265 -1.035802,-4.7772 -1.366258,-29.67916 -1.073585,-80.90153 0.418252,-73.200584 0.45438,-74.058977 3.344268,-79.459572 1.606796,-3.002766 5.163158,-7.427823 7.903029,-9.833461 10.452658,-9.1775547 4.660085,-8.7069647 107.175519,-8.7069647 102.51544,0 96.72286,-0.47059 107.17552,8.7069647 2.73986,2.405638 6.29624,6.830695 7.90302,9.833461 2.89304,5.406476 2.92528,6.192232 3.31556,80.792902 0.28867,55.17831 -0.03,76.8665 -1.19114,81.06383 -2.22304,8.03595 -8.00046,15.45237 -15.42858,19.80554 -5.58649,3.27391 -8.0789,3.79832 -21.01922,4.4225 l -14.68119,0.70813 -2.46685,6.66667 c -6.43696,17.39582 -22.93993,31.01274 -47.7248,39.37866 -10.46445,3.53219 -32.71761,7.95467 -40.02648,7.95467 h -5.38294 z m 42.0275,-78.22669 c 12.9278,-2.89811 22.88054,-11.59887 29.48131,-25.77277 3.76119,-8.07646 7.45564,-26.13513 5.87121,-28.69879 -0.8736,-1.41351 -46.25538,-2.01707 -47.63888,-0.63357 -0.40193,0.40194 1.10316,5.55794 3.34466,11.45778 l 4.07546,10.72699 6.92916,-0.86575 c 6.88903,-0.86072 6.92536,-0.84592 6.27488,2.55684 -0.85177,4.45578 -7.19924,9.72558 -13.03256,10.81991 -8.37024,1.57027 -23.59282,0.0669 -29.30524,-2.89404 -11.16971,-5.78976 -15.98055,-18.70684 -15.0578,-40.43016 0.96241,-22.656869 4.64413,-26.508951 26.5551,-27.783931 10.32408,-0.60074 12.26038,-0.31965 18.97546,2.75461 5.74474,2.630032 8.39927,4.876052 11.45191,9.689561 2.18556,3.44626 4.1466,6.69478 4.35787,7.21891 0.21128,0.52413 5.33413,1.35675 11.38413,1.85026 10.38627,0.84722 11,0.74955 11,-1.75057 0,-4.37416 -5.10185,-16.629051 -9.225,-22.158891 l -3.86385,-5.18207 3.80502,-4.33368 c 4.15971,-4.73765 6.60512,-11.807572 6.59722,-19.073238 -0.007,-6.032951 -6.1282,-16.683332 -13.32796,-23.18788 -7.36062,-6.649871 -9.51734,-4.943119 -5.51378,4.363404 1.96415,4.565774 2.86168,9.407751 2.86168,15.437985 0,8.204164 -0.22642,8.871915 -3.42013,10.086159 -5.84876,2.223694 -10.04996,1.456504 -14.78357,-2.699668 -5.78726,-5.081275 -12.69968,-5.457684 -16.7486,-0.912027 l -2.75054,3.087972 -3.08797,-3.087972 c -4.2727,-4.272701 -9.74748,-3.958189 -15.87585,0.912027 -6.13725,4.877274 -12.67087,5.329137 -16.835649,1.16435 -2.45523,-2.45523 -2.74731,-3.936206 -2.17715,-11.039215 0.37412,-4.66071 1.93821,-10.711993 3.621687,-14.011887 2.365182,-4.636134 2.607822,-6.027946 1.20231,-6.896598 -2.635867,-1.629057 -9.140027,2.99088 -14.448364,10.262742 -3.991883,5.468463 -4.708135,7.608412 -5.147168,15.378215 -0.412004,7.291458 0.05564,10.194237 2.433714,15.106681 1.619043,3.3445 4.141668,6.72203 5.605833,7.50563 2.654468,1.42063 2.654278,1.43306 -0.06475,4.32735 -10.683027,11.371562 -13.285133,41.819301 -5.379672,62.948541 10.27857,27.47194 39.226919,41.07143 71.855879,33.75679 z"
     id="path3723"
     inkscape:connector-curvature="0"
     inkscape:export-xdpi="810"
     inkscape:export-ydpi="810" />
</svg>
